<?xml version="1.0" encoding="utf-8"?>
<!-- Generator: Adobe Illustrator 24.1.2, SVG Export Plug-In . SVG Version: 6.00 Build 0)  -->
<svg version="1.1" id="Layer_1" xmlns="http://www.w3.org/2000/svg" xmlns:xlink="http://www.w3.org/1999/xlink" x="0px" y="0px"
	 viewBox="0 0 200 200" style="enable-background:new 0 0 200 200;" xml:space="preserve">
<style type="text/css">
	.st0{fill:url(#SVGID_1_);}
	.st1{fill:#FFFFFF;}
	.st2{fill:#BCBEC0;}
</style>
<linearGradient id="SVGID_1_" gradientUnits="userSpaceOnUse" x1="135.9629" y1="159.3764" x2="157.6203" y2="164.1411">
	<stop  offset="0" style="stop-color:#F15A29"/>
	<stop  offset="1" style="stop-color:#AA472D"/>
</linearGradient>
<path class="st0" d="M150.9,169.2h-8.7c-4.2,0-7.5-3.4-7.5-7.5v0c0-4.2,3.4-7.5,7.5-7.5h8.7c4.2,0,7.5,3.4,7.5,7.5v0
	C158.4,165.9,155,169.2,150.9,169.2z"/>
<g>
	<g id="XMLID_1_">
		<g id="XMLID_17_">
			<polygon class="st1" points="106.4,64.1 108.4,64.7 108.4,59.4 106.4,59.3 			"/>
		</g>
		<g id="XMLID_18_">
			<polygon class="st1" points="103.1,63.2 105,63.7 105,59.2 103.1,59.1 			"/>
		</g>
		<g id="XMLID_19_">
			<polygon class="st1" points="117.1,59.8 117.1,67.2 119.6,67.8 119.3,59.9 			"/>
		</g>
		<g id="XMLID_22_">
			<path class="st1" d="M122.4,57l-0.1-0.4l-0.3-0.3c-0.4-0.3-1-0.5-2.9-0.8c-0.1,0-0.2,0-0.4-0.1c-0.6-1.8-1.4-3.5-2.5-5
				c-0.9-1.2-2-2.3-3.2-3.2l13.2-30c0,0-14.1,5.3-22.1,12.2c0,0-0.6-0.6-1.5-1.6l0,0c0,0-1.8,3.7-2.5,5.6c0,0,2.9-0.7,3.7-0.5
				c0,0-2.2,2.5-2.8,10.1c-0.2,0-0.4,0-0.7,0c-1.2,0.1-2.4,0.3-3.5,0.6c0.4-2.5,1.1-5.8,1.7-6.7l-2.9,0.4c0,0-0.5-5.4,4.2-13
				c-1.4-2-2.7-4.2-2.8-5.9c0,0-4.9,15.9-5.5,18.6c0,0-6.7-3.2-9.3-10.5c0,0-4.9,14.8-0.3,20.3c0,0-11.5,2-15.4,1.5
				c0,0,12.4,9.9,12.7,10.4c0.2,0.5-6.1,3.9-8.7,10.1c0,0,9.1-2.3,13.5-2c0.7,1.9,1.8,3.7,3.2,5.2c0.6,0.7,1.4,1.4,2,2.1
				c0,0,0.1,0.1,0.1,0.1c0.1,0.1,0.1,0.2,0.2,0.3c0.2,0.2,0.3,0.5,0.5,0.7c0.2,0.3,0.3,0.5,0.4,0.8c0.1,0.1,0.1,0.3,0.2,0.4
				c0,0.1,0.1,0.2,0.1,0.2c0,0,0.1,0.2,0.1,0.2c1.3,3.2,1.2,7.3-1.5,9.7c-0.7,0.6-1.5,1-2.3,1.5c-1,0.6-2.1,1.2-3.1,1.8
				c-0.3,0.2-0.6,0.4-0.9,0.5c-0.4,0.2-0.5,0.6-0.5,1c0,1.1,0,2.2,0,3.3c0,0.1,0,0.2,0,0.3c-0.9,0.4-1.7,0.8-2.6,1.2
				c-0.3,0.1-0.4,0.5-0.4,0.7c0,0.8,0,1.5,0,2.3c0,0.4,0.3,0.7,0.6,0.8c2.2,0.7,4.4,1.4,6.6,2.1c3.5,1.1,7.1,2.3,10.6,3.4
				c0.8,0.2,1.6,0.6,2.4,0.8c0.3,0.1,0.5,0,0.7-0.1c0.4-0.1,0.8-0.2,1.2-0.4c3.3-1.1,6.7-2.2,10-3.2c2.6-0.9,5.3-1.7,7.9-2.5
				c0,0,0.1,0,0.1,0c0.4-0.1,0.6-0.4,0.6-0.8c0-0.8,0-1.5,0-2.3c0-0.3-0.2-0.6-0.4-0.7c-0.7-0.3-1.3-0.6-2-0.9
				c-0.2-0.1-0.4-0.2-0.6-0.3c0-1.2,0-2.5,0-3.7c0-0.3-0.2-0.6-0.4-0.7c-1-0.5-1.9-1-2.8-1.6c-0.8-0.5-1.6-0.9-2.3-1.5
				c-0.7-0.5-1.2-0.8-1.8-1.4c0,0-0.1-0.1-0.1-0.1c0.2,0.2,0,0,0-0.1c-0.1-0.1-0.2-0.3-0.2-0.4c0,0-0.1-0.2-0.1-0.2
				c0-0.1-0.1-0.2-0.1-0.3c0-0.1-0.1-0.2-0.1-0.4c0,0,0,0,0,0c0,0,0,0,0-0.1c0-0.1,0-0.1,0-0.2c-0.1-1.5,0.5-2.9,1.4-4.2
				c0.1-0.1,0.2-0.3,0.2-0.3s2.2,0.5,3.3,0.7c0.6,0.1,1.1,0.3,1.7,0.4c0.5,0.1,0.9-0.1,1-0.6c0.9-2.4,1.5-4.9,1.8-7.4
				c1.6,0.4,2.6,0.6,2.6,0.7l1.4,0.3l0.4-1.4c0.9-3,1-6.5,0.5-10.4C123.1,59.1,122.4,57.1,122.4,57z M118.4,97.5c0,0.4,0,0.8,0,1.2
				c-2,0.6-4,1.3-6,1.9c-3.5,1.1-7,2.3-10.4,3.4c-0.7,0.2-1.5,0.5-2.2,0.7c-2.1-0.7-4.3-1.4-6.4-2c-3.5-1.1-7.1-2.3-10.6-3.4
				c-0.6-0.2-1.2-0.4-1.8-0.6c0-0.4,0-0.8,0-1.2c0.7-0.3,1.4-0.7,2.2-1c1.8,0.6,3.6,1.1,5.4,1.7c3,0.9,6,1.9,9,2.8
				c0.7,0.2,1.3,0.5,2,0.6c0.5,0.1,1.2-0.2,1.7-0.4c2.8-0.9,5.7-1.8,8.5-2.7c2.2-0.7,4.4-1.4,6.6-2.1
				C117,96.9,117.7,97.2,118.4,97.5z M115.4,79c-1.3-0.3-2.6-0.6-3.9-0.9c-2.5-0.6-5-1.1-7.5-1.7c-0.6-0.1-4.6-1.1-4.6-1.1l9.1,4.7
				c-0.7,1.3-1.2,2.8-1,4.2c0.1,1.1,0.4,2.2,1.2,3c1.3,1.3,2.9,2.2,4.4,3.1c0.8,0.5,1.7,0.9,2.5,1.4c0,1.1,0,2.1,0,3.2
				c-0.8,0.2-1.5,0.5-2.3,0.7c-3.6,1.2-7.2,2.3-10.7,3.4c-0.9,0.3-1.7,0.6-2.6,0.8c-1.8-0.6-3.6-1.1-5.4-1.7c-3-1-6-1.9-9-2.9
				c-0.5-0.2-0.9-0.3-1.4-0.5c0-1.1,0-2.1,0-3.2c1.3-0.8,2.7-1.5,4-2.3c0.8-0.4,1.5-0.9,2.2-1.5c1.4-1.2,2.3-2.9,2.7-4.6
				c0.6-3,0-6.2-1.6-8.8c-0.4-0.7-0.9-1.3-1.4-1.9c-0.2-0.3-0.5-0.5-0.8-0.8c-0.6-0.6-1.1-1.2-1.6-1.8c-2-2.7-3.1-6-3.2-9.4
				c0-1.5,0.1-3.1,0.5-4.6c0.1-0.2,0.1-0.4,0.2-0.6c0,0,0,0,0-0.1c0,0,0-0.1,0-0.1c0.1-0.1,0.1-0.3,0.2-0.4c0.2-0.5,0.5-1,0.8-1.4
				c0.7-1,1.3-1.8,2.2-2.7c1-1,2-1.8,3-2.6c2.4-1.7,5-2.8,7.9-3.2c3.1-0.5,6.4,0.1,9.2,1.5c3.3,1.6,6.1,4.1,7.7,7.4
				c0.1,0.3,0.3,0.6,0.4,0.9c-4.3-0.5-8.6-0.7-12.9-0.7c-2,0-4,0-5.9,0.7c-1.7,0.6-3.5,1.7-4.2,3.4c-0.9,1.9-0.7,4.2,0.4,5.9
				c0.7,1.2,1.7,2,2.9,2.6c2.9,1.4,6,2.2,9,3.1c3.5,1,7,1.9,10.5,2.8c0.1,0,0.3,0.1,0.4,0.1C116.6,74.8,116.1,76.9,115.4,79z
				 M121.6,72c0,0-21.1-5.1-24.7-7.7c0,0-2.4-1.7-1.7-4.8c0.4-1.6,2.1-2.8,4.5-3.3c0.7-0.2,2.1-0.2,3.7-0.2c6.2,0,16.8,0.9,17.5,1.5
				C120.9,57.5,123.5,65.3,121.6,72z"/>
		</g>
		<g id="XMLID_25_">
			<polygon class="st1" points="113.4,66.1 115.7,66.8 115.7,59.7 113.4,59.6 			"/>
		</g>
		<g id="XMLID_26_">
			<polygon class="st1" points="109.8,65.1 112,65.7 112,59.5 109.8,59.4 			"/>
		</g>
	</g>
	<g>
		<g>
			<path class="st1" d="M48.8,131.2c-1-0.4-1.9-0.8-2.9-1.3c-1.5-0.7-3-1.7-3-3.6c0-2.1,1.8-3.3,3.7-3.6c2.4-0.4,4.9,0.4,6.6,2.1
				c0.1,0.1,0.3,0.1,0.4,0c0.3-0.3,0.6-0.7,0.9-1c0.1-0.1,0.1-0.3,0-0.4c-2.7-2.7-7.3-3.6-10.7-1.8c-1.4,0.7-2.5,2-2.8,3.5
				c-0.4,1.6,0,3.4,1.1,4.6c1,1.1,2.3,1.7,3.7,2.3c0.9,0.4,1.9,0.9,2.8,1.3c1.2,0.6,2.6,1,3.6,1.9c1.2,1.1,1.4,3.1,0.6,4.5
				c-1,1.8-3.3,2.3-5.2,2.3c-2.5,0-4.8-1.1-6.5-2.9c-0.1-0.1-0.3-0.1-0.4,0c-0.3,0.4-0.7,0.7-1,1.1c0,0,0,0.1,0,0.1c0,0,0,0.1,0,0.1
				s0,0,0,0.1c0,0,0,0.1,0.1,0.1c2.7,2.8,6.9,4.1,10.8,3c1.6-0.4,3-1.3,3.9-2.7c0.9-1.4,1.1-3.1,0.7-4.7
				C54.3,133.4,51.3,132.4,48.8,131.2z"/>
		</g>
		<g>
			<path class="st1" d="M67.6,127.1c-2.8,0-5.6,0-8.3,0c-0.4,0-0.8,0-1.2,0c-0.2,0-0.3,0.1-0.3,0.3c0,0.4,0,0.9,0,1.3
				c0,0.2,0.1,0.3,0.3,0.3c2.3,0,4.7,0,7,0c0.2,0,0.5,0,0.7,0c0,4.2,0,8.5,0,12.7c0,0.6,0,1.2,0,1.8c0,0.2,0.1,0.3,0.3,0.3
				c0.5,0,1,0,1.5,0c0.2,0,0.3-0.1,0.3-0.3c0-1.8,0-3.6,0-5.4c0-2.9,0-5.8,0-8.6c0-0.7,0-1.3,0-2C67.9,127.3,67.8,127.1,67.6,127.1z
				"/>
		</g>
		<g>
			<path class="st1" d="M66.6,120c-1.1-0.1-1.9,0.8-2,1.9c0,1,0.8,1.9,1.8,1.9c1,0,1.8-0.7,1.8-1.7C68.4,121,67.7,120.1,66.6,120z"
				/>
		</g>
		<g>
			<path class="st1" d="M83.8,127.3c-1.7,0.7-3.1,1.9-4.2,3.3c-0.1-1.1-0.1-2.2-0.1-3.3c0-0.2-0.1-0.3-0.3-0.3c-0.4,0-0.9,0-1.3,0
				c-0.1,0-0.1,0-0.1,0.1c0,0-0.1,0-0.1,0c0,0,0,0.1,0,0.1c0,0-0.1,0.1-0.1,0.1c0,1.8,0,3.6,0,5.4c0,2.9,0,5.8,0,8.6
				c0,0.7,0,1.3,0,2c0,0.2,0.1,0.3,0.3,0.3c0.5,0,1,0,1.5,0c0.2,0,0.3-0.1,0.3-0.3c0-2.2,0-4.4,0-6.6c0-1.1,0-2.1,0-3.2
				c0-0.1,0-0.2,0-0.2c0-0.1,0.2-0.3,0.3-0.4c0.2-0.3,0.4-0.5,0.6-0.8c0.7-0.9,1.5-1.8,2.5-2.4c0.9-0.6,1.8-0.9,2.9-1
				c1.3-0.1,2.5,0.1,3.7,0.5c0.1,0.1,0.3-0.1,0.3-0.2c0.1-0.4,0.3-0.9,0.4-1.3c0-0.1,0-0.3-0.1-0.3
				C88.3,126.5,85.8,126.5,83.8,127.3z"/>
		</g>
		<g>
			<path class="st1" d="M107.4,139.5c-0.1-0.1-0.3-0.1-0.4,0c-1,1.1-2.1,2-3.5,2.4c-1.2,0.3-2.5,0.3-3.7,0c-2.2-0.6-3.8-2.4-4.7-4.5
				c-1-2.6-1.1-5.6-0.5-8.2c0.5-2.3,1.7-4.4,3.7-5.6c1.1-0.6,2.4-0.9,3.6-0.9c1.8,0,3.3,0.8,4.5,2.2c0.1,0.1,0.3,0.1,0.4,0
				c0.3-0.3,0.6-0.7,0.9-1c0.1-0.1,0.1-0.3,0-0.4c-2.2-2.6-5.8-3.3-9-2.3c-2.7,0.9-4.7,3-5.7,5.6c-0.7,1.8-1,3.7-1,5.6
				c0,3.2,0.8,6.7,3.1,9.1c2.1,2.2,5.2,3.1,8.2,2.5c2-0.4,3.6-1.6,5-3.1c0.1-0.1,0.1-0.3,0-0.4C108,140.2,107.7,139.9,107.4,139.5z"
				/>
		</g>
		<g>
			<path class="st1" d="M118.9,127.3c-1.7,0.7-3.1,1.9-4.2,3.3c-0.1-1.1-0.1-2.2-0.1-3.3c0-0.2-0.1-0.3-0.3-0.3c-0.4,0-0.9,0-1.3,0
				c-0.1,0-0.1,0-0.1,0.1c0,0-0.1,0-0.1,0c0,0,0,0.1,0,0.1c0,0-0.1,0.1-0.1,0.1c0,1.8,0,3.6,0,5.4c0,2.9,0,5.8,0,8.6
				c0,0.7,0,1.3,0,2c0,0.2,0.1,0.3,0.3,0.3c0.5,0,1,0,1.5,0c0.2,0,0.3-0.1,0.3-0.3c0-2.2,0-4.4,0-6.6c0-1.1,0-2.1,0-3.2
				c0-0.1,0-0.2,0-0.2c0-0.1,0.2-0.3,0.3-0.4c0.2-0.3,0.4-0.5,0.6-0.8c0.7-0.9,1.5-1.8,2.5-2.4c0.9-0.6,1.8-0.9,2.9-1
				c1.3-0.1,2.5,0.1,3.7,0.5c0.1,0.1,0.3-0.1,0.3-0.2c0.1-0.4,0.3-0.9,0.4-1.3c0-0.1,0-0.3-0.1-0.3
				C123.4,126.5,120.9,126.5,118.9,127.3z"/>
		</g>
		<g>
			<path class="st1" d="M141.5,127.1c-0.5,0-1,0-1.5,0c-0.2,0-0.3,0.1-0.3,0.3c0,1.9,0,3.7,0,5.6c0,1.3,0,2.6,0,3.9
				c0,0.5,0,0.9,0,1.4c0,0.2,0.1,0.5,0,0.6c0.1-0.1-0.3,0.2-0.3,0.2c-0.2,0.2-0.5,0.5-0.7,0.7c-0.4,0.4-0.8,0.8-1.3,1.1
				c-0.8,0.6-1.6,1-2.5,1.2c-1.5,0.3-3.4,0.1-4.4-1.2c-0.9-1.1-1-2.6-1-3.9c0-0.9,0-1.8,0-2.7c0-2.3,0-4.7,0-7
				c0-0.2-0.1-0.3-0.3-0.3c-0.5,0-1,0-1.5,0c-0.2,0-0.3,0.1-0.3,0.3c0,2.9,0,5.8,0,8.7c0,0.4,0,0.8,0,1.2c0,2.1,0.4,4.4,2.3,5.7
				c1.9,1.3,4.7,1.3,6.7,0.3c0.7-0.3,1.3-0.8,1.9-1.2c0.3-0.3,0.7-0.6,1-0.9c0.1-0.1,0.3-0.3,0.4-0.4c0,0.9,0.1,1.7,0.1,2.6
				c0,0.2,0.1,0.3,0.3,0.3c0.4,0,0.8,0,1.2,0c0.2,0,0.3-0.1,0.3-0.3c0-1.8,0-3.6,0-5.4c0-2.9,0-5.8,0-8.6c0-0.7,0-1.3,0-2
				C141.8,127.3,141.7,127.1,141.5,127.1z"/>
		</g>
		<g>
			<path class="st1" d="M160.3,143.3c-1.9-3.3-3.9-6.6-5.8-9.9c-0.2-0.4-0.5-0.9-0.7-1.3c1.8-3.1,3.6-6.1,5.3-9.2
				c0.3-0.4,0.5-0.9,0.8-1.3c0.1-0.2,0-0.4-0.2-0.4c-0.5,0-1,0-1.6,0c-0.1,0-0.2,0.1-0.2,0.1c-1.2,2.1-2.4,4.2-3.6,6.4
				c-0.5,0.9-1,1.9-1.5,2.8c-1.6-2.7-3.1-5.4-4.6-8.1c-0.2-0.4-0.4-0.7-0.6-1.1c-0.1-0.1-0.1-0.1-0.2-0.1c-0.6,0-1.1,0-1.7,0
				c-0.2,0-0.4,0.2-0.2,0.4c1.8,3.1,3.6,6.2,5.4,9.3c0.2,0.4,0.5,0.8,0.7,1.2c-1.9,3.3-3.8,6.6-5.7,9.8c-0.3,0.5-0.6,0.9-0.8,1.4
				c-0.1,0.2,0,0.4,0.2,0.4c0.5,0,1,0,1.6,0c0.1,0,0.2-0.1,0.2-0.1c1.3-2.2,2.6-4.4,3.8-6.7c0.6-1.1,1.2-2.2,1.8-3.3
				c1.7,2.9,3.3,5.8,5,8.8c0.2,0.4,0.4,0.8,0.7,1.2c0.1,0.1,0.1,0.1,0.2,0.1c0.6,0,1.1,0,1.7,0C160.3,143.7,160.5,143.5,160.3,143.3
				z"/>
		</g>
	</g>
	<g>
		<path class="st2" d="M41,167v-10.1h1.2v9h4.5v1L41,167L41,167z"/>
		<path class="st2" d="M57.5,167l-1.2-3.2h-4L51,167h-1.2l3.9-10.1h1l3.9,10.1H57.5z M55.9,162.8l-1.2-3.2c0-0.1-0.1-0.2-0.1-0.4
			c-0.1-0.2-0.1-0.4-0.2-0.6c-0.1-0.2-0.1-0.4-0.2-0.5c-0.1,0.2-0.1,0.4-0.1,0.6s-0.1,0.4-0.2,0.5c-0.1,0.2-0.1,0.3-0.1,0.4
			l-1.2,3.2H55.9z"/>
		<path class="st2" d="M70.7,167h-1.4l-5.5-8.5h-0.1c0,0.2,0,0.5,0.1,0.8c0,0.3,0,0.6,0,0.9c0,0.3,0,0.7,0,1v5.8h-1.1v-10.1h1.3
			l5.5,8.4h0.1c0-0.2,0-0.4,0-0.7c0-0.3,0-0.6,0-1c0-0.3,0-0.7,0-1v-5.8h1.1C70.7,156.9,70.7,167,70.7,167z"/>
		<path class="st2" d="M80.6,157.8c-0.6,0-1,0.1-1.5,0.3s-0.8,0.5-1.1,0.8c-0.3,0.4-0.6,0.8-0.7,1.3c-0.2,0.5-0.2,1.1-0.2,1.7
			c0,0.8,0.1,1.6,0.4,2.2c0.3,0.6,0.7,1.1,1.2,1.4c0.5,0.3,1.2,0.5,2,0.5c0.4,0,0.9,0,1.3-0.1c0.4-0.1,0.8-0.2,1.2-0.3v1
			c-0.4,0.1-0.7,0.2-1.2,0.3c-0.4,0.1-0.9,0.1-1.4,0.1c-1,0-1.9-0.2-2.6-0.6c-0.7-0.4-1.2-1-1.5-1.8c-0.3-0.8-0.5-1.7-0.5-2.7
			c0-0.8,0.1-1.5,0.3-2.1c0.2-0.6,0.5-1.2,0.9-1.6s0.9-0.8,1.5-1.1c0.6-0.2,1.3-0.4,2.1-0.4c0.5,0,1,0.1,1.5,0.2
			c0.5,0.1,0.9,0.2,1.3,0.4l-0.5,1c-0.3-0.1-0.7-0.3-1.1-0.4C81.5,157.9,81.1,157.8,80.6,157.8z"/>
		<path class="st2" d="M93.6,167H88v-10.1h5.6v1h-4.4v3.3h4.2v1h-4.2v3.7h4.4V167z"/>
		<path class="st2" d="M98.6,167v-10.1h1.2v9h4.5v1L98.6,167L98.6,167z"/>
		<path class="st2" d="M117.6,162c0,0.8-0.1,1.5-0.3,2.1s-0.5,1.2-0.9,1.6c-0.4,0.5-0.9,0.8-1.4,1.1c-0.6,0.2-1.2,0.4-2,0.4
			c-0.8,0-1.5-0.1-2-0.4c-0.6-0.2-1.1-0.6-1.4-1.1c-0.4-0.5-0.7-1-0.9-1.6s-0.3-1.4-0.3-2.1c0-1,0.2-1.9,0.5-2.7
			c0.3-0.8,0.9-1.4,1.5-1.8c0.7-0.4,1.6-0.6,2.6-0.6c1,0,1.8,0.2,2.5,0.6c0.7,0.4,1.2,1,1.5,1.8C117.4,160,117.6,160.9,117.6,162z
			 M109.5,162c0,0.9,0.1,1.6,0.4,2.2c0.2,0.6,0.6,1.1,1.1,1.4c0.5,0.3,1.1,0.5,1.9,0.5c0.8,0,1.4-0.2,1.9-0.5
			c0.5-0.3,0.9-0.8,1.1-1.4c0.2-0.6,0.4-1.4,0.4-2.2c0-1.3-0.3-2.3-0.8-3c-0.5-0.7-1.4-1.1-2.5-1.1c-0.8,0-1.4,0.2-1.9,0.5
			c-0.5,0.3-0.9,0.8-1.1,1.4C109.7,160.4,109.5,161.1,109.5,162z"/>
		<path class="st2" d="M125.7,167h-1.2v-9h-3.2v-1h7.5v1h-3.1L125.7,167L125.7,167z"/>
	</g>
</g>
<g>
	<path class="st1" d="M141.8,166.1l-3.8-8.6h1.3l3.5,8h-0.8l3.5-8h1.2l-3.8,8.6H141.8z"/>
	<path class="st1" d="M150,166.2c-0.6,0-1.2-0.1-1.8-0.3c-0.6-0.2-1-0.4-1.4-0.8l0.6-1c0.3,0.3,0.7,0.5,1.1,0.7s1,0.3,1.5,0.3
		c0.6,0,1.1-0.1,1.5-0.4s0.5-0.6,0.5-1.1c0-0.5-0.2-0.8-0.5-1.1c-0.3-0.3-0.9-0.4-1.6-0.4h-0.7v-0.9l2.6-3.2l0.2,0.5h-4.7v-1.1h5.7
		v0.8l-2.6,3.1l-0.6-0.4h0.4c1,0,1.8,0.2,2.3,0.7c0.5,0.5,0.8,1.1,0.8,1.8c0,0.5-0.1,0.9-0.4,1.3c-0.2,0.4-0.6,0.7-1.1,1
		C151.4,166,150.8,166.2,150,166.2z"/>
</g>
</svg>
